<?xml version="1.0" standalone="no"?>
<!DOCTYPE svg PUBLIC "-//W3C//DTD SVG 20010904//EN"
 "http://www.w3.org/TR/2001/REC-SVG-20010904/DTD/svg10.dtd">
<svg version="1.0" xmlns="http://www.w3.org/2000/svg"
 width="1124.000000pt" height="1124.000000pt" viewBox="0 0 1124.000000 1124.000000"
 preserveAspectRatio="xMidYMid meet">
<metadata>
Created by potrace 1.11, written by Peter Selinger 2001-2013
</metadata>
<g transform="translate(0.000000,1124.000000) scale(0.100000,-0.100000)"
fill="#000000" stroke="none">
<path d="M5480 11209 c-72 -62 -341 -269 -349 -269 -5 0 -11 -4 -13 -8 -3 -7
-108 -94 -199 -163 -19 -15 -61 -48 -94 -73 -33 -26 -85 -65 -115 -88 -30 -23
-111 -87 -180 -143 -69 -55 -143 -113 -165 -130 -22 -16 -41 -32 -43 -36 -2
-4 -29 -27 -60 -50 -31 -24 -61 -48 -67 -54 -21 -22 -132 -115 -138 -115 -3 0
-28 -20 -54 -44 -26 -24 -129 -112 -228 -196 -99 -83 -198 -168 -220 -188 -21
-20 -53 -47 -69 -59 l-30 -23 -1298 0 -1298 0 0 -664 0 -665 -217 -4 c-123 -2
-240 -9 -268 -16 -27 -7 -61 -14 -73 -17 -13 -3 -40 -12 -60 -22 -34 -15 -37
-21 -40 -62 -3 -41 0 -46 25 -57 16 -7 44 -15 63 -19 19 -3 46 -10 60 -15 47
-16 105 -21 308 -26 l202 -4 0 -4000 0 -3999 4810 0 4810 0 0 4030 0 4030 73
0 c84 0 370 17 440 26 41 5 47 9 47 30 0 13 -6 24 -12 25 -7 1 -27 2 -45 4
-18 1 -47 5 -66 9 -19 3 -116 8 -216 11 -100 3 -191 10 -202 15 -18 10 -19 29
-19 700 l0 690 -1314 0 -1315 0 -25 23 c-13 12 -50 45 -82 72 -31 28 -100 88
-153 135 -53 47 -146 127 -206 179 -61 51 -127 111 -147 133 -21 21 -38 35
-38 31 0 -4 -12 5 -28 20 -15 16 -58 51 -96 78 -38 27 -90 67 -115 89 -25 22
-64 53 -86 69 -84 64 -104 79 -254 196 -84 66 -186 145 -225 175 -40 30 -79
60 -87 67 -23 20 -118 94 -214 168 -49 38 -91 73 -93 77 -2 4 -10 8 -17 8 -8
0 -18 6 -22 13 -4 8 -15 18 -24 23 -18 10 -92 70 -121 97 -15 15 -38 17 -160
17 l-143 -1 -35 -30z m216 -381 c16 -12 31 -25 34 -28 3 -3 43 -34 90 -70 47
-35 92 -70 100 -77 42 -34 259 -203 300 -233 25 -19 53 -41 61 -47 20 -18 134
-107 235 -183 47 -36 133 -103 191 -150 58 -47 138 -107 177 -134 39 -27 92
-66 118 -87 26 -22 49 -39 53 -39 4 0 35 -21 70 -47 35 -27 98 -73 140 -103
l76 -55 -1632 -3 c-898 -1 -1635 0 -1638 3 -5 6 55 63 112 108 16 12 35 27 42
34 50 47 463 387 476 391 4 2 27 21 51 43 24 21 46 39 50 39 5 0 16 8 26 18
10 9 58 48 108 87 49 38 210 164 358 280 148 115 288 224 310 242 50 38 55 39
92 11z"/>
</g>
</svg>
